<svg width="649" height="401" viewBox="0 0 649 401" fill="none" xmlns="http://www.w3.org/2000/svg">
<path d="M641.98 197.838C642.566 156.301 630.239 122.818 611.373 96.2358M641.98 197.838C641.414 237.981 629.362 270.902 611.373 297.499M641.98 197.838H526.988M7.31293 197.838C9.49527 155.878 21.128 122.503 37.7096 96.2358M7.31293 197.838C5.1306 239.799 14.5299 273.174 30.2829 299.441M7.31293 197.838H126.728M37.7096 96.2358C74.8955 37.3287 136.971 14.168 173.167 10.0945H321.329M37.7096 96.2358H155.476M611.373 96.2358C573.256 42.5299 508.445 16.9893 469.492 10.0945H321.329M611.373 96.2358H498.24M30.2829 299.441C65.6104 358.348 132.892 381.509 173.167 385.582L321.329 387.791M30.2829 299.441L155.476 299.023M611.373 297.499C573.14 354.027 508.09 381.989 469.492 390L321.329 387.791M611.373 297.499L498.24 297.877M321.329 387.791C356.712 393.375 441.629 383.209 498.24 297.877M321.329 387.791C283.736 388.985 197.934 372.902 155.476 299.023M498.24 297.877L155.476 299.023M498.24 297.877C514.162 286.024 524.039 226.246 526.988 197.838M155.476 299.023C146.63 290.327 128.497 257.917 126.728 197.838M126.728 197.838C125.99 179.432 130.708 133.343 155.476 96.2358M126.728 197.838H526.988M155.476 96.2358C165.795 71.2033 213.414 18.9295 321.329 10.0945M155.476 96.2358H498.24M321.329 10.0945C360.397 8.62197 450.474 23.7887 498.24 96.2358M498.24 96.2358C508.56 113.17 528.757 157.198 526.988 197.838" stroke="#FF0A27" stroke-width="20"/>
</svg>
