<?xml version="1.0" standalone="no"?>
<!DOCTYPE svg PUBLIC "-//W3C//DTD SVG 20010904//EN"
 "http://www.w3.org/TR/2001/REC-SVG-20010904/DTD/svg10.dtd">
<svg version="1.0" xmlns="http://www.w3.org/2000/svg"
 width="700.000000pt" height="700.000000pt" viewBox="0 0 700.000000 700.000000"
 preserveAspectRatio="xMidYMid meet">
<metadata>
Created by potrace 1.14, written by Peter Selinger 2001-2017
</metadata>
<g transform="translate(0.000000,700.000000) scale(0.100000,-0.100000)"
fill="#000000" stroke="none">
<path d="M0 3500 l0 -3500 3500 0 3500 0 0 3500 0 3500 -3500 0 -3500 0 0
-3500z m4922 1726 c310 -80 617 -233 852 -425 111 -91 269 -263 341 -370 75
-112 152 -270 188 -386 140 -446 83 -961 -150 -1358 -244 -417 -688 -744
-1238 -914 l-90 -28 -495 3 c-547 4 -656 5 -1560 22 -647 11 -700 15 -871 60
-346 90 -696 296 -896 527 -274 316 -398 692 -379 1143 35 829 492 1448 1252
1693 209 68 134 65 1591 66 l1322 1 133 -34z"/>
<path d="M2070 5040 c-178 -38 -413 -139 -562 -242 -100 -69 -226 -178 -278
-239 l-41 -49 385 0 385 0 37 56 c57 85 177 207 278 282 114 85 128 94 251
159 l100 53 -235 -1 c-188 0 -252 -4 -320 -19z"/>
<path d="M3335 5044 c-362 -49 -675 -162 -912 -331 -70 -49 -213 -180 -213
-194 0 -5 536 -9 1303 -9 l1302 1 -90 87 c-335 323 -918 510 -1390 446z"/>
<path d="M4485 5012 c216 -115 400 -265 537 -439 l50 -63 361 0 361 0 -44 46
c-191 197 -548 392 -868 475 -106 27 -126 29 -300 29 l-187 0 90 -48z"/>
<path d="M1042 4298 c-25 -32 -96 -189 -127 -281 -32 -95 -65 -240 -80 -349
l-6 -48 420 0 419 0 7 68 c17 171 69 379 130 523 19 46 35 87 35 91 0 4 -177
8 -394 8 -303 0 -396 -3 -404 -12z"/>
<path d="M2057 4273 c-81 -128 -160 -385 -182 -590 l-7 -63 1652 0 1653 0 -8
72 c-14 146 -89 387 -173 558 l-27 55 -1443 3 -1442 2 -23 -37z"/>
<path d="M5190 4306 c0 -2 10 -26 21 -53 75 -171 140 -408 155 -560 l7 -73
404 0 404 0 -6 58 c-25 219 -82 403 -176 564 l-40 68 -384 0 c-212 0 -385 -2
-385 -4z"/>
<path d="M823 3318 c12 -193 52 -359 126 -522 l30 -66 425 0 c234 0 426 3 426
6 0 4 -16 45 -35 93 -45 113 -90 299 -105 436 -6 61 -14 120 -16 133 l-4 22
-427 0 -426 0 6 -102z"/>
<path d="M1877 3378 c29 -273 105 -539 176 -618 l22 -25 1453 3 1454 3 29 64
c51 109 107 330 144 573 l7 42 -1645 0 -1645 0 5 -42z"/>
<path d="M5351 3343 c-26 -168 -73 -379 -107 -484 -19 -61 -34 -111 -32 -112
2 -1 172 0 378 3 l375 5 52 100 c81 155 153 402 153 525 l0 40 -404 0 -403 0
-12 -77z"/>
<path d="M5004 2453 c-147 -185 -327 -345 -516 -458 l-83 -50 180 -3 c169 -2
185 -1 275 24 252 71 520 209 725 372 81 65 215 192 215 204 0 4 -162 8 -360
8 l-359 0 -77 -97z"/>
<path d="M1497 2533 l-378 -3 41 -49 c144 -170 439 -351 710 -435 165 -51 257
-64 500 -71 245 -7 234 -17 80 78 -163 100 -313 240 -432 405 -60 81 -61 82
-102 80 -22 -2 -211 -4 -419 -5z"/>
<path d="M2210 2531 c0 -21 200 -210 285 -270 175 -123 419 -225 651 -272 161
-32 565 -42 714 -18 271 45 562 187 770 376 81 73 180 176 180 186 0 4 -585 7
-1300 7 -794 0 -1300 -4 -1300 -9z"/>
</g>
</svg>
